<mxfile host="Electron" modified="2023-12-21T19:31:54.170Z" agent="Mozilla/5.0 (Windows NT 10.0; Win64; x64) AppleWebKit/537.36 (KHTML, like Gecko) draw.io/22.1.2 Chrome/114.0.5735.289 Electron/25.9.4 Safari/537.36" etag="zHpMmdqRl42thso4aq7x" version="22.1.2" type="device">
  <diagram name="Page-1" id="xU5MmeD3-hOXE_pJsN4M">
    <mxGraphModel dx="850" dy="824" grid="1" gridSize="10" guides="1" tooltips="1" connect="1" arrows="1" fold="1" page="1" pageScale="1" pageWidth="850" pageHeight="1100" math="0" shadow="0">
      <root>
        <mxCell id="0" />
        <mxCell id="1" parent="0" />
        <mxCell id="7AWL_upulU86PT_VFGFy-2" value="" style="rounded=0;whiteSpace=wrap;html=1;fillColor=none;" vertex="1" parent="1">
          <mxGeometry x="179" y="450" width="500" height="410" as="geometry" />
        </mxCell>
        <mxCell id="-qRy3Vi_CwyMC0IqLVa5-1" value="" style="endArrow=none;html=1;rounded=0;" parent="1" edge="1">
          <mxGeometry width="50" height="50" relative="1" as="geometry">
            <mxPoint x="199" y="530" as="sourcePoint" />
            <mxPoint x="639" y="530" as="targetPoint" />
          </mxGeometry>
        </mxCell>
        <mxCell id="-qRy3Vi_CwyMC0IqLVa5-2" value="" style="ellipse;whiteSpace=wrap;html=1;" parent="1" vertex="1">
          <mxGeometry x="409" y="800" width="20" height="10" as="geometry" />
        </mxCell>
        <mxCell id="-qRy3Vi_CwyMC0IqLVa5-5" value="" style="endArrow=none;dashed=1;html=1;rounded=0;exitX=0.5;exitY=0;exitDx=0;exitDy=0;dashPattern=1 1;strokeWidth=3;" parent="1" source="-qRy3Vi_CwyMC0IqLVa5-2" edge="1">
          <mxGeometry width="50" height="50" relative="1" as="geometry">
            <mxPoint x="419" y="790" as="sourcePoint" />
            <mxPoint x="204" y="530" as="targetPoint" />
          </mxGeometry>
        </mxCell>
        <mxCell id="-qRy3Vi_CwyMC0IqLVa5-6" value="" style="endArrow=none;dashed=1;html=1;rounded=0;exitX=0.5;exitY=0;exitDx=0;exitDy=0;" parent="1" source="-qRy3Vi_CwyMC0IqLVa5-2" edge="1">
          <mxGeometry width="50" height="50" relative="1" as="geometry">
            <mxPoint x="474" y="730" as="sourcePoint" />
            <mxPoint x="214" y="530" as="targetPoint" />
          </mxGeometry>
        </mxCell>
        <mxCell id="-qRy3Vi_CwyMC0IqLVa5-7" value="" style="endArrow=none;dashed=1;html=1;rounded=0;exitX=0.5;exitY=0;exitDx=0;exitDy=0;" parent="1" source="-qRy3Vi_CwyMC0IqLVa5-2" edge="1">
          <mxGeometry width="50" height="50" relative="1" as="geometry">
            <mxPoint x="394" y="640" as="sourcePoint" />
            <mxPoint x="224" y="530" as="targetPoint" />
          </mxGeometry>
        </mxCell>
        <mxCell id="-qRy3Vi_CwyMC0IqLVa5-8" value="" style="endArrow=none;dashed=1;html=1;rounded=0;exitX=0.5;exitY=0;exitDx=0;exitDy=0;" parent="1" source="-qRy3Vi_CwyMC0IqLVa5-2" edge="1">
          <mxGeometry width="50" height="50" relative="1" as="geometry">
            <mxPoint x="512" y="825" as="sourcePoint" />
            <mxPoint x="234" y="530" as="targetPoint" />
          </mxGeometry>
        </mxCell>
        <mxCell id="-qRy3Vi_CwyMC0IqLVa5-9" value="Point Cloud Area" style="rounded=1;whiteSpace=wrap;html=1;" parent="1" vertex="1">
          <mxGeometry x="369" y="570" width="100" height="40" as="geometry" />
        </mxCell>
        <mxCell id="-qRy3Vi_CwyMC0IqLVa5-11" value="Camera Lens" style="rounded=1;whiteSpace=wrap;html=1;" parent="1" vertex="1">
          <mxGeometry x="369" y="820" width="100" height="30" as="geometry" />
        </mxCell>
        <mxCell id="-qRy3Vi_CwyMC0IqLVa5-12" value="Floor" style="rounded=1;whiteSpace=wrap;html=1;" parent="1" vertex="1">
          <mxGeometry x="369" y="490" width="100" height="30" as="geometry" />
        </mxCell>
        <mxCell id="-qRy3Vi_CwyMC0IqLVa5-13" value="" style="endArrow=none;dashed=1;html=1;rounded=0;exitX=0.5;exitY=0;exitDx=0;exitDy=0;" parent="1" source="-qRy3Vi_CwyMC0IqLVa5-2" edge="1">
          <mxGeometry width="50" height="50" relative="1" as="geometry">
            <mxPoint x="394" y="640" as="sourcePoint" />
            <mxPoint x="244" y="530" as="targetPoint" />
          </mxGeometry>
        </mxCell>
        <mxCell id="-qRy3Vi_CwyMC0IqLVa5-14" value="" style="endArrow=none;dashed=1;html=1;rounded=0;exitX=0.5;exitY=0;exitDx=0;exitDy=0;" parent="1" source="-qRy3Vi_CwyMC0IqLVa5-2" edge="1">
          <mxGeometry width="50" height="50" relative="1" as="geometry">
            <mxPoint x="419" y="815" as="sourcePoint" />
            <mxPoint x="254" y="530" as="targetPoint" />
          </mxGeometry>
        </mxCell>
        <mxCell id="-qRy3Vi_CwyMC0IqLVa5-17" value="" style="endArrow=none;dashed=1;html=1;rounded=0;exitX=0.5;exitY=0;exitDx=0;exitDy=0;dashPattern=1 1;strokeWidth=3;" parent="1" source="-qRy3Vi_CwyMC0IqLVa5-2" edge="1">
          <mxGeometry width="50" height="50" relative="1" as="geometry">
            <mxPoint x="394" y="640" as="sourcePoint" />
            <mxPoint x="634" y="530" as="targetPoint" />
          </mxGeometry>
        </mxCell>
        <mxCell id="-qRy3Vi_CwyMC0IqLVa5-19" value="" style="curved=1;endArrow=classic;html=1;rounded=0;strokeColor=none;" parent="1" source="-qRy3Vi_CwyMC0IqLVa5-21" edge="1">
          <mxGeometry width="50" height="50" relative="1" as="geometry">
            <mxPoint x="444" y="770" as="sourcePoint" />
            <mxPoint x="494" y="720" as="targetPoint" />
            <Array as="points">
              <mxPoint x="444" y="720" />
            </Array>
          </mxGeometry>
        </mxCell>
        <mxCell id="-qRy3Vi_CwyMC0IqLVa5-20" value="" style="endArrow=none;html=1;curved=1;" parent="1" edge="1">
          <mxGeometry width="50" height="50" relative="1" as="geometry">
            <mxPoint x="509" y="690" as="sourcePoint" />
            <mxPoint x="419" y="650" as="targetPoint" />
            <Array as="points">
              <mxPoint x="474" y="650" />
            </Array>
          </mxGeometry>
        </mxCell>
        <mxCell id="-qRy3Vi_CwyMC0IqLVa5-23" value="" style="curved=1;endArrow=classic;html=1;rounded=0;strokeColor=none;" parent="1" target="-qRy3Vi_CwyMC0IqLVa5-21" edge="1">
          <mxGeometry width="50" height="50" relative="1" as="geometry">
            <mxPoint x="444" y="770" as="sourcePoint" />
            <mxPoint x="494" y="720" as="targetPoint" />
            <Array as="points">
              <mxPoint x="494" y="770" />
            </Array>
          </mxGeometry>
        </mxCell>
        <mxCell id="-qRy3Vi_CwyMC0IqLVa5-21" value="&lt;font style=&quot;font-size: 10px;&quot;&gt;Max Angle&lt;/font&gt;" style="ellipse;whiteSpace=wrap;html=1;" parent="1" vertex="1">
          <mxGeometry x="429" y="660" width="40" height="40" as="geometry" />
        </mxCell>
        <mxCell id="-qRy3Vi_CwyMC0IqLVa5-24" value="" style="endArrow=none;html=1;curved=1;" parent="1" edge="1">
          <mxGeometry width="50" height="50" relative="1" as="geometry">
            <mxPoint x="419" y="650" as="sourcePoint" />
            <mxPoint x="324" y="680" as="targetPoint" />
            <Array as="points">
              <mxPoint x="354" y="650" />
            </Array>
          </mxGeometry>
        </mxCell>
        <mxCell id="-qRy3Vi_CwyMC0IqLVa5-29" value="" style="endArrow=none;html=1;rounded=0;" parent="1" edge="1">
          <mxGeometry width="50" height="50" relative="1" as="geometry">
            <mxPoint x="244" y="530" as="sourcePoint" />
            <mxPoint x="254" y="510" as="targetPoint" />
          </mxGeometry>
        </mxCell>
        <mxCell id="-qRy3Vi_CwyMC0IqLVa5-30" value="" style="endArrow=none;html=1;rounded=0;" parent="1" edge="1">
          <mxGeometry width="50" height="50" relative="1" as="geometry">
            <mxPoint x="254" y="530" as="sourcePoint" />
            <mxPoint x="254" y="510" as="targetPoint" />
          </mxGeometry>
        </mxCell>
        <mxCell id="-qRy3Vi_CwyMC0IqLVa5-33" value="&lt;span style=&quot;color: rgb(0, 0, 0); font-family: Helvetica; font-size: 12px; font-style: normal; font-variant-ligatures: normal; font-variant-caps: normal; font-weight: 400; letter-spacing: normal; orphans: 2; text-align: center; text-indent: 0px; text-transform: none; widows: 2; word-spacing: 0px; -webkit-text-stroke-width: 0px; background-color: rgb(251, 251, 251); text-decoration-thickness: initial; text-decoration-style: initial; text-decoration-color: initial; float: none; display: inline !important;&quot;&gt;Interval/Category&lt;/span&gt;" style="ellipse;whiteSpace=wrap;html=1;" parent="1" vertex="1">
          <mxGeometry x="209" y="470" width="110" height="30" as="geometry" />
        </mxCell>
        <mxCell id="7AWL_upulU86PT_VFGFy-7" value="" style="endArrow=none;html=1;rounded=0;" edge="1" parent="1">
          <mxGeometry width="50" height="50" relative="1" as="geometry">
            <mxPoint x="419" y="800" as="sourcePoint" />
            <mxPoint x="519" y="600" as="targetPoint" />
          </mxGeometry>
        </mxCell>
        <mxCell id="7AWL_upulU86PT_VFGFy-8" value="" style="endArrow=none;html=1;curved=1;" edge="1" parent="1">
          <mxGeometry width="50" height="50" relative="1" as="geometry">
            <mxPoint x="459" y="720" as="sourcePoint" />
            <mxPoint x="420" y="710" as="targetPoint" />
            <Array as="points">
              <mxPoint x="444" y="700" />
            </Array>
          </mxGeometry>
        </mxCell>
        <mxCell id="7AWL_upulU86PT_VFGFy-10" value="" style="ellipse;whiteSpace=wrap;html=1;strokeWidth=3;" vertex="1" parent="1">
          <mxGeometry x="429" y="720" width="10" height="20" as="geometry" />
        </mxCell>
        <mxCell id="7AWL_upulU86PT_VFGFy-11" value="" style="endArrow=none;html=1;rounded=0;entryX=1;entryY=0.5;entryDx=0;entryDy=0;exitX=0;exitY=0.5;exitDx=0;exitDy=0;strokeWidth=4;" edge="1" parent="1" source="7AWL_upulU86PT_VFGFy-10" target="7AWL_upulU86PT_VFGFy-10">
          <mxGeometry width="50" height="50" relative="1" as="geometry">
            <mxPoint x="409" y="780" as="sourcePoint" />
            <mxPoint x="459" y="730" as="targetPoint" />
          </mxGeometry>
        </mxCell>
        <mxCell id="7AWL_upulU86PT_VFGFy-13" value="" style="ellipse;whiteSpace=wrap;html=1;aspect=fixed;" vertex="1" parent="1">
          <mxGeometry x="NaN" y="NaN" height="NaN" as="geometry" />
        </mxCell>
        <mxCell id="7AWL_upulU86PT_VFGFy-14" value="" style="ellipse;whiteSpace=wrap;html=1;aspect=fixed;fillColor=#000000;" vertex="1" parent="1">
          <mxGeometry x="514" y="590" width="10" height="10" as="geometry" />
        </mxCell>
        <mxCell id="7AWL_upulU86PT_VFGFy-15" value="Data Point" style="rounded=1;whiteSpace=wrap;html=1;" vertex="1" parent="1">
          <mxGeometry x="514" y="550" width="45" height="30" as="geometry" />
        </mxCell>
        <mxCell id="7AWL_upulU86PT_VFGFy-16" value="" style="endArrow=none;html=1;rounded=0;" edge="1" parent="1">
          <mxGeometry width="50" height="50" relative="1" as="geometry">
            <mxPoint x="419" y="800" as="sourcePoint" />
            <mxPoint x="419.5" y="630" as="targetPoint" />
          </mxGeometry>
        </mxCell>
        <mxCell id="7AWL_upulU86PT_VFGFy-18" value="&lt;font style=&quot;font-size: 10px;&quot;&gt;Min Angle&lt;/font&gt;" style="ellipse;whiteSpace=wrap;html=1;" vertex="1" parent="1">
          <mxGeometry x="364" y="660" width="40" height="40" as="geometry" />
        </mxCell>
      </root>
    </mxGraphModel>
  </diagram>
</mxfile>
